<svg xmlns="http://www.w3.org/2000/svg" width="16" height="18" viewBox="0 0 16 18" fill="none"><path d="M10.8339 12.5716L10.8339 12.5715L10.8308 12.5715L10.6695 12.5669L10.6695 12.5668H10.6667H5.33333C4.60639 12.5668 3.9069 12.8445 3.37799 13.3433C2.84908 13.842 2.53074 14.5239 2.48809 15.2496L2.48804 15.2496L2.48796 15.2527L2.48337 15.414L2.48333 15.414V15.4168L2.48333 16.2501C2.48333 16.2501 2.48333 16.2501 2.48333 16.2502C2.48333 16.2502 2.48333 16.2502 2.48333 16.2502C2.48307 16.4583 2.40337 16.6584 2.26051 16.8098C2.11762 16.9611 1.92232 17.0522 1.71453 17.0644C1.50673 17.0766 1.30212 17.009 1.1425 16.8754C0.983611 16.7424 0.881238 16.554 0.856058 16.3484L0.85 16.2472V15.4168C0.850067 14.2615 1.29613 13.1508 2.09517 12.3164C2.89397 11.4822 3.98389 10.9884 5.13774 10.938L5.33448 10.9335H10.6667C11.822 10.9336 12.9327 11.3796 13.7671 12.1787C14.6013 12.9775 15.0951 14.0674 15.1455 15.2212L15.15 15.418V16.2501C15.1498 16.4582 15.0701 16.6584 14.9272 16.8098C14.7843 16.9611 14.589 17.0522 14.3812 17.0644C14.1734 17.0766 13.9688 17.009 13.8092 16.8754C13.6503 16.7424 13.5479 16.554 13.5227 16.3484L13.5167 16.2472V15.4168C13.5167 14.6899 13.239 13.9904 12.7402 13.4615C12.2415 12.9326 11.5596 12.6142 10.8339 12.5716ZM8 0.933496C9.18905 0.933496 10.3294 1.40585 11.1702 2.24663C12.011 3.08742 12.4833 4.22778 12.4833 5.41683C12.4833 6.60588 12.011 7.74624 11.1702 8.58703C10.3294 9.42781 9.18905 9.90016 8 9.90016C6.81095 9.90016 5.67059 9.42781 4.8298 8.58703C3.98902 7.74624 3.51667 6.60588 3.51667 5.41683C3.51667 4.22778 3.98902 3.08742 4.8298 2.24663C5.67059 1.40585 6.81095 0.933496 8 0.933496ZM8 2.56683C7.62573 2.56683 7.25513 2.64055 6.90935 2.78377C6.56357 2.927 6.24939 3.13693 5.98475 3.40158C5.7201 3.66622 5.51017 3.9804 5.36694 4.32618C5.22372 4.67196 5.15 5.04256 5.15 5.41683C5.15 5.7911 5.22372 6.1617 5.36694 6.50748C5.51017 6.85326 5.7201 7.16744 5.98475 7.43208C6.24939 7.69673 6.56357 7.90666 6.90935 8.04989C7.25513 8.19311 7.62573 8.26683 8 8.26683C8.75587 8.26683 9.48078 7.96656 10.0153 7.43208C10.5497 6.89761 10.85 6.1727 10.85 5.41683C10.85 4.66096 10.5497 3.93605 10.0153 3.40158C9.48078 2.8671 8.75587 2.56683 8 2.56683Z" fill="black" stroke="#E4E4E4" stroke-width="0.2"></path></svg>