<svg xmlns="http://www.w3.org/2000/svg" width="16" height="17" viewBox="0 0 16 17" fill="none"><path d="M12.1188 4.15385V4.18885H12.1538H14.6154C14.9733 4.18885 15.3166 4.33104 15.5697 4.58414C15.8228 4.83724 15.965 5.18052 15.965 5.53846V14.9231C15.965 15.281 15.8228 15.6243 15.5697 15.8774C15.3166 16.1305 14.9733 16.2727 14.6154 16.2727H1.38462C1.02668 16.2727 0.683395 16.1305 0.430293 15.8774C0.177191 15.6243 0.035 15.281 0.035 14.9231V5.53846C0.035 5.18052 0.177191 4.83724 0.430293 4.58414C0.683395 4.33104 1.02668 4.18885 1.38462 4.18885H3.84615H3.88115V4.15385C3.88115 3.06146 4.3151 2.01382 5.08754 1.24138C5.85997 0.468949 6.90761 0.035 8 0.035C9.09239 0.035 10.14 0.468949 10.9125 1.24138C11.6849 2.01382 12.1188 3.06146 12.1188 4.15385ZM10.7692 4.18885H10.8042V4.15385C10.8042 3.41012 10.5088 2.69685 9.98289 2.17095C9.45699 1.64506 8.74373 1.34962 8 1.34962C7.25627 1.34962 6.543 1.64506 6.01711 2.17095C5.49121 2.69685 5.19577 3.41012 5.19577 4.15385V4.18885H5.23077H10.7692ZM14.6154 14.9581H14.6504V14.9231V5.53846V5.50346H14.6154H12.1538H12.1188V5.53846V6.92308C12.1188 7.0974 12.0496 7.26459 11.9263 7.38786C11.8031 7.51113 11.6359 7.58038 11.4615 7.58038C11.2872 7.58038 11.12 7.51113 10.9968 7.38786C10.8735 7.26459 10.8042 7.0974 10.8042 6.92308V5.53846V5.50346H10.7692H5.23077H5.19577V5.53846V6.92308C5.19577 7.0974 5.12652 7.26459 5.00325 7.38786C4.87998 7.51113 4.71279 7.58038 4.53846 7.58038C4.36413 7.58038 4.19694 7.51113 4.07368 7.38786C3.95041 7.26459 3.88115 7.0974 3.88115 6.92308V5.53846V5.50346H3.84615H1.38462H1.34962V5.53846V14.9231V14.9581H1.38462H14.6154Z" fill="black" stroke="#E4E4E4" stroke-width="0.07"></path></svg>